<svg width="1200" height="500" viewBox="0 0 1200 500" fill="none" xmlns="http://www.w3.org/2000/svg">
  <defs>
    <linearGradient id="g1" x1="120" y1="80" x2="1020" y2="420" gradientUnits="userSpaceOnUse">
      <stop offset="0" stop-color="#8B5CF6"/>
      <stop offset="0.5" stop-color="#06B6D4"/>
      <stop offset="1" stop-color="#EC4899"/>
    </linearGradient>
    <linearGradient id="card1" x1="90" y1="130" x2="360" y2="360" gradientUnits="userSpaceOnUse">
      <stop offset="0" stop-color="#22D3EE"/>
      <stop offset="1" stop-color="#A855F7"/>
    </linearGradient>
  </defs>

  <rect width="1200" height="500" rx="36" fill="#0F172A"/>

  <g transform="translate(70 95)">
    <rect x="10" y="0" width="230" height="290" rx="24" fill="url(#card1)" transform="rotate(-10 10 0)"/>
    <rect x="42" y="32" width="210" height="270" rx="22" fill="#F8FAFC" transform="rotate(-10 42 32)"/>
    <path d="M140 145L157 181L196 185L167 213L174 252L140 233L106 252L113 213L84 185L123 181L140 145Z" fill="#F59E0B"/>
    <path d="M64 260C118 300 214 304 280 242" stroke="#38BDF8" stroke-width="14" stroke-linecap="round"/>
    <circle cx="292" cy="234" r="12" fill="#22D3EE"/>
  </g>

  <text x="390" y="225" font-size="110" font-weight="900" fill="url(#g1)" font-family="Fredoka, Baloo, Arial Rounded MT Bold, Arial, sans-serif">Salinda</text>
  <text x="395" y="305" font-size="62" font-weight="800" fill="#F8FAFC" font-family="Rubik, Arial, sans-serif" direction="rtl" unicode-bidi="plaintext">&#x05E1;&#x05DC;&#x05D9;&#x05E0;&#x05D3;&#x05D4;</text>
</svg>
