<svg width="1200" height="500" viewBox="0 0 1200 500" fill="none" xmlns="http://www.w3.org/2000/svg">
  <defs>
    <linearGradient id="g3" x1="360" y1="80" x2="1020" y2="370" gradientUnits="userSpaceOnUse">
      <stop offset="0" stop-color="#38BDF8"/>
      <stop offset="0.5" stop-color="#8B5CF6"/>
      <stop offset="1" stop-color="#F43F5E"/>
    </linearGradient>
  </defs>

  <rect width="1200" height="500" rx="36" fill="#0B1120"/>

  <g transform="translate(70 95)">
    <path d="M38 198C80 74 212 30 318 102C406 162 416 290 342 352C260 422 122 404 58 312" stroke="url(#g3)" stroke-width="24" stroke-linecap="round"/>
    <rect x="118" y="74" width="190" height="248" rx="24" fill="#F8FAFC" transform="rotate(8 118 74)"/>
    <path d="M214 140L231 176L270 180L241 208L248 248L214 229L180 248L187 208L158 180L197 176L214 140Z" fill="#22D3EE"/>
  </g>

  <text x="390" y="225" font-size="108" font-weight="900" fill="url(#g3)" font-family="Fredoka, Baloo, Arial Rounded MT Bold, Arial, sans-serif">Salinda</text>
  <text x="395" y="305" font-size="60" font-weight="800" fill="#F9FAFB" font-family="Rubik, Arial, sans-serif" direction="rtl" unicode-bidi="plaintext">&#x05E1;&#x05DC;&#x05D9;&#x05E0;&#x05D3;&#x05D4;</text>
</svg>
